<svg width="14" height="18" viewBox="0 0 14 18" fill="none" xmlns="http://www.w3.org/2000/svg">
<path d="M2.83301 4.20829C2.83301 3.86312 3.11167 3.58329 3.45542 3.58329H8.46059C8.80434 3.58329 9.08301 3.86312 9.08301 4.20829C9.08301 4.55347 8.80434 4.83329 8.46059 4.83329H3.45542C3.11167 4.83329 2.83301 4.55347 2.83301 4.20829ZM3.45542 11.0833C3.11167 11.0833 2.83301 11.3631 2.83301 11.7083C2.83301 12.0535 3.11167 12.3333 3.45542 12.3333H8.46059C8.80434 12.3333 9.08301 12.0535 9.08301 11.7083C9.08301 11.3631 8.80434 11.0833 8.46059 11.0833H3.45542ZM2.83301 7.95829C2.83301 7.61313 3.11167 7.33329 3.45542 7.33329H8.46059C8.80434 7.33329 9.08301 7.61313 9.08301 7.95829C9.08301 8.30346 8.80434 8.58329 8.46059 8.58329H3.45542C3.11167 8.58329 2.83301 8.30346 2.83301 7.95829ZM0.333008 2.54163C0.333008 1.50609 1.17247 0.666626 2.20801 0.666626H9.70801C10.7435 0.666626 11.583 1.50609 11.583 2.54163V13.375C11.583 14.4105 10.7435 15.25 9.70801 15.25H2.20801C1.17247 15.25 0.333008 14.4105 0.333008 13.375V2.54163ZM1.58623 2.47773C1.5841 2.49873 1.58301 2.52005 1.58301 2.54163V13.375C1.58301 13.7201 1.86283 14 2.20801 14H9.70801C10.0532 14 10.333 13.7201 10.333 13.375V2.54163C10.333 2.19645 10.0532 1.91663 9.70801 1.91663H2.20801C1.8844 1.91663 1.61824 2.16256 1.58623 2.47773ZM4.29207 17.3333C3.47568 17.3333 2.78116 16.8115 2.52377 16.0833H9.70876C11.2045 16.0833 12.4171 14.8707 12.4171 13.375V6.44737L13.1179 7.14819C13.4695 7.49979 13.6671 7.97671 13.6671 8.47404V13.375C13.6671 15.5611 11.8948 17.3333 9.70876 17.3333H4.29207Z" fill="#9CA3AF"/>
</svg>
