<svg width="15" height="18" viewBox="0 0 15 18" fill="none" xmlns="http://www.w3.org/2000/svg">
<path d="M2.20801 0.666626C1.17247 0.666626 0.333008 1.50609 0.333008 2.54163V15.4583C0.333008 16.4938 1.17247 17.3333 2.20801 17.3333H8.45834C9.48801 17.3333 10.3238 16.5034 10.3333 15.476L10.3335 15.4584V14.2084C10.3335 13.8632 10.0538 13.5834 9.70851 13.5834C9.33034 13.5834 9.09242 13.4816 8.92784 13.3494C8.75451 13.21 8.61159 12.995 8.50201 12.6917C8.27484 12.0625 8.25026 11.233 8.25017 10.4583C8.25017 10.3 8.19009 10.1476 8.08209 10.032C8.01851 9.96379 7.97584 9.91763 7.94509 9.88446C7.86976 9.80304 7.86617 9.79921 7.80301 9.73971C7.74142 9.68179 7.55334 9.50221 6.81717 8.76638C6.42676 8.37613 6.21026 8.04588 6.13942 7.79363C6.10701 7.67804 6.10867 7.59179 6.12642 7.52238C6.14409 7.45354 6.18742 7.36313 6.29701 7.2535C6.40651 7.14393 6.49676 7.10083 6.56517 7.08332C6.63409 7.06565 6.72009 7.06401 6.83542 7.09654C7.08751 7.16765 7.41751 7.38454 7.80809 7.77538C8.25776 8.22529 8.68509 8.64788 9.06784 9.02646C9.70076 9.65229 10.2125 10.1584 10.5017 10.4682C10.7372 10.7205 11.1327 10.7341 11.385 10.4986C11.6373 10.2631 11.651 9.86763 11.4155 9.61529C11.1783 9.36121 10.7973 8.97988 10.3332 8.51996L10.3331 5.71688L12.7009 8.08471C13.0525 8.43629 13.2501 8.91321 13.2501 9.41046V16.7083C13.2501 17.0535 13.5299 17.3333 13.8751 17.3333C14.2203 17.3333 14.5001 17.0535 14.5001 16.7083V9.41046C14.5001 8.58171 14.1708 7.78688 13.5848 7.20078L10.3331 3.94908L10.333 2.54158C10.333 1.50606 9.49359 0.666626 8.45801 0.666626H2.20801ZM8.14459 14.3235C8.41234 14.5388 8.72601 14.6888 9.08334 14.768V14.8333H8.45842C8.11326 14.8333 7.83342 15.1131 7.83342 15.4583V16.0833H6.58342V15.4583C6.58342 14.7138 7.01734 14.0706 7.64601 13.768C7.77942 13.972 7.94309 14.1615 8.14459 14.3235ZM7.00101 10.7049C7.00259 10.9157 7.00717 11.1435 7.01992 11.3798C6.54376 11.7178 5.96176 11.9165 5.33342 11.9165C3.72256 11.9165 2.41672 10.6107 2.41672 8.99988C2.41672 7.38904 3.72256 6.08322 5.33342 6.08322C5.46726 6.08322 5.59892 6.09223 5.72801 6.10968C5.61684 6.18376 5.51184 6.2709 5.41301 6.36975C5.16935 6.61345 4.99692 6.89511 4.91568 7.21172C4.83459 7.52779 4.8542 7.84029 4.93596 8.13146C5.0935 8.69263 5.49034 9.20754 5.93351 9.65046C6.66951 10.386 6.86959 10.5779 6.94659 10.6502C6.95134 10.6547 6.95492 10.658 6.95767 10.6605C6.96059 10.6632 6.96259 10.665 6.96426 10.6664L6.96751 10.6693C6.97184 10.6733 6.97584 10.6776 6.99767 10.7013L7.00101 10.7049ZM2.83342 1.91663H4.08342V2.54122C4.08342 3.57675 3.24395 4.41622 2.20842 4.41622H1.58301V3.16622H2.20842C2.55359 3.16622 2.83342 2.8864 2.83342 2.54122V1.91663ZM6.58342 1.91663H7.83342V2.54122C7.83342 2.8864 8.11326 3.16622 8.45842 3.16622H9.08309V4.41622H8.45842C7.42284 4.41622 6.58342 3.57675 6.58342 2.54122V1.91663ZM4.08342 16.0833H2.83342V15.4583C2.83342 15.1131 2.55359 14.8333 2.20842 14.8333H1.58301V13.5833H2.20842C3.24395 13.5833 4.08342 14.4228 4.08342 15.4583V16.0833Z" fill="#9CA3AF"/>
</svg>
