<svg width="18" height="16" viewBox="0 0 18 16" fill="none" xmlns="http://www.w3.org/2000/svg">
<path d="M7.33366 0.791626C7.33366 0.446451 7.05383 0.166626 6.70866 0.166626H4.83366L4.6257 0.171726C2.42113 0.280084 0.666992 2.10184 0.666992 4.33329C0.666992 6.63446 2.53248 8.49996 4.83366 8.49996H6.70866L6.80102 8.49321C7.1024 8.44854 7.33366 8.18879 7.33366 7.87496C7.33366 7.52979 7.05383 7.24996 6.70866 7.24996H4.83366L4.66228 7.24504C3.13122 7.15629 1.91699 5.88663 1.91699 4.33329C1.91699 2.72246 3.22283 1.41663 4.83366 1.41663H6.70866L6.80102 1.40985C7.1024 1.36521 7.33366 1.10543 7.33366 0.791626ZM17.3337 4.33329C17.3337 2.03211 15.4682 0.166626 13.167 0.166626H11.292L11.1997 0.173401C10.8982 0.218043 10.667 0.477826 10.667 0.791626C10.667 1.1368 10.9468 1.41663 11.292 1.41663H13.167L13.3384 1.42158C14.8694 1.51029 16.0837 2.77999 16.0837 4.33329C16.0837 4.93688 15.9003 5.49754 15.5863 5.96288C15.9069 6.26579 16.1589 6.64063 16.3163 7.06154C16.9502 6.33054 17.3337 5.37671 17.3337 4.33329ZM13.167 3.70829H4.83366L4.74885 3.714C4.44378 3.75538 4.20866 4.01688 4.20866 4.33329C4.20866 4.67846 4.48848 4.95829 4.83366 4.95829H13.167L13.2518 4.95263C13.5568 4.91121 13.792 4.64971 13.792 4.33329C13.792 3.98812 13.5122 3.70829 13.167 3.70829ZM15.667 8.08329C15.667 9.23388 14.7342 10.1666 13.5837 10.1666C12.4331 10.1666 11.5003 9.23388 11.5003 8.08329C11.5003 6.93271 12.4331 5.99996 13.5837 5.99996C14.7342 5.99996 15.667 6.93271 15.667 8.08329ZM17.3337 12.5625C17.3337 13.8595 16.2622 15.1666 13.5837 15.1666C10.9051 15.1666 9.83366 13.8645 9.83366 12.5625V12.4766C9.83366 11.6607 10.4951 11 11.3109 11H15.8564C16.6722 11 17.3337 11.6608 17.3337 12.4766V12.5625Z" fill="#9CA3AF"/>
</svg>
