<svg width="18" height="14" viewBox="0 0 18 14" fill="none" xmlns="http://www.w3.org/2000/svg">
<path d="M9.00033 12.948C8.58249 13.3905 7.99033 13.6667 7.33366 13.6667H2.12533C1.31991 13.6667 0.666992 13.0138 0.666992 12.2084V1.79171C0.666992 0.986291 1.31991 0.333374 2.12533 0.333374H7.33366C7.99033 0.333374 8.58249 0.609583 9.00033 1.05215C9.41816 0.609583 10.0103 0.333374 10.667 0.333374H15.8753C16.6807 0.333374 17.3337 0.986291 17.3337 1.79171V12.2084C17.3337 13.0138 16.6807 13.6667 15.8753 13.6667H10.667C10.0103 13.6667 9.41816 13.3905 9.00033 12.948ZM1.91699 1.79171V12.2084C1.91699 12.3235 2.01027 12.4167 2.12533 12.4167H7.33366C7.90899 12.4167 8.37533 11.9504 8.37533 11.375V2.62504C8.37533 2.04974 7.90899 1.58337 7.33366 1.58337H2.12533C2.01027 1.58337 1.91699 1.67665 1.91699 1.79171ZM9.62533 11.375C9.62533 11.9504 10.0917 12.4167 10.667 12.4167H15.8753C15.9904 12.4167 16.0837 12.3235 16.0837 12.2084V1.79171C16.0837 1.67665 15.9904 1.58337 15.8753 1.58337H10.667C10.0917 1.58337 9.62533 2.04974 9.62533 2.62504V11.375Z" fill="#9CA3AF"/>
</svg>
